<svg xmlns="http://www.w3.org/2000/svg" viewBox="0 0 512 512" width="512" height="512">
  <defs>
    <radialGradient id="bg" cx="40%" cy="35%" r="70%">
      <stop offset="0%" stop-color="#ffffff"/>
      <stop offset="50%" stop-color="#f3ece0"/>
      <stop offset="100%" stop-color="#e2d7c1"/>
    </radialGradient>
  </defs>
  <rect width="512" height="512" rx="0" fill="#1fa15e"/>
  <g transform="translate(256 256) scale(0.75) translate(-256 -256)">
    <circle cx="256.0" cy="256.0" r="245.76" fill="url(#bg)" stroke="#15233f" stroke-width="10.2"/>
    <g transform="rotate(11 256.0 256.0)">
      <path d="M92 67 C154 179 154 333 92 445" fill="none" stroke="#c4382c" stroke-width="4.6" opacity="0.4"/>
      <path d="M420 67 C358 179 358 333 420 445" fill="none" stroke="#c4382c" stroke-width="4.6" opacity="0.4"/>
      <g fill="none" stroke="#cc3a2d" stroke-width="9.7" stroke-linecap="round" stroke-linejoin="round"><path d="M82.2 84.8 L106.0 94.7 L113.9 70.2"/><path d="M91.8 105.6 L114.8 117.1 L124.3 93.2"/><path d="M100.0 127.3 L122.3 140.2 L133.3 117.0"/><path d="M106.9 149.6 L128.3 163.9 L140.7 141.3"/><path d="M112.4 172.4 L132.9 188.0 L146.7 166.2"/><path d="M116.5 195.7 L136.1 212.4 L151.1 191.5"/><path d="M119.3 219.2 L137.9 237.0 L154.1 217.0"/><path d="M120.8 242.9 L138.3 261.8 L155.6 242.8"/><path d="M120.8 266.7 L137.2 286.5 L155.6 268.5"/><path d="M119.5 290.4 L134.8 311.1 L154.2 294.2"/><path d="M116.9 313.9 L130.9 335.5 L151.2 319.7"/><path d="M112.9 337.1 L125.6 359.5 L146.8 344.9"/><path d="M107.6 359.8 L118.9 383.0 L141.0 369.8"/><path d="M100.9 382.0 L110.7 405.8 L133.6 394.1"/><path d="M92.9 403.6 L101.1 428.0 L124.8 417.8"/><path d="M398.1 70.2 L406.0 94.7 L429.8 84.8"/><path d="M387.7 93.2 L397.2 117.1 L420.2 105.6"/><path d="M378.7 117.0 L389.7 140.2 L412.0 127.3"/><path d="M371.3 141.3 L383.7 163.9 L405.1 149.6"/><path d="M365.3 166.2 L379.1 188.0 L399.6 172.4"/><path d="M360.9 191.5 L375.9 212.4 L395.5 195.7"/><path d="M357.9 217.0 L374.1 237.0 L392.7 219.2"/><path d="M356.4 242.8 L373.7 261.8 L391.2 242.9"/><path d="M356.4 268.5 L374.8 286.5 L391.2 266.7"/><path d="M357.8 294.2 L377.2 311.1 L392.5 290.4"/><path d="M360.8 319.7 L381.1 335.5 L395.1 313.9"/><path d="M365.2 344.9 L386.4 359.5 L399.1 337.1"/><path d="M371.0 369.8 L393.1 383.0 L404.4 359.8"/><path d="M378.4 394.1 L401.3 405.8 L411.1 382.0"/><path d="M387.2 417.8 L410.9 428.0 L419.1 403.6"/></g>
    </g>
  </g>
</svg>
